<?xml version="1.0"?>
<svg xmlns="http://www.w3.org/2000/svg" xmlns:xlink="http://www.w3.org/1999/xlink" xmlns:svgjs="http://svgjs.com/svgjs" version="1.1" width="512" height="512" x="0" y="0" viewBox="0 0 512 512" style="enable-background:new 0 0 512 512" xml:space="preserve" class=""><circle r="256" cx="256" cy="256" fill="#cbdaef" shape="circle"/><g transform="matrix(0.7,0,0,0.7,76.79989471435547,76.79999542236328)">
<path xmlns="http://www.w3.org/2000/svg" style="" d="M368.884,238.644c0-16.488-13.885-30.373-30.373-30.373l0,0c-16.488,0-30.373,13.885-30.373,30.373  v-4.339v-30.373c0-16.488-13.885-30.373-30.373-30.373l0,0c-16.488,0-30.373,13.885-30.373,30.373v4.339V100.664  c0-17.356-13.885-31.241-30.373-31.241l0,0c-16.488,0-30.373,13.885-30.373,31.241v203.064l-13.017-21.695  c-15.62-27.77-51.2-39.919-75.498-30.373c-3.471,0.868-6.075,2.603-8.678,5.207c-8.678,5.207-6.942,13.017-6.942,14.753  s43.39,47.729,67.688,93.722c0,0,21.695,34.712,45.125,59.878v26.034c0,39.051,32.108,60.746,69.424,60.746h77.234  c29.505,0,56.407-15.62,63.349-45.993c1.736-6.942,4.339-17.356,9.546-22.563c6.942-7.81,14.753-27.77,14.753-54.671V273.356  c0-16.488-13.885-30.373-30.373-30.373l0,0c-16.488,0-30.373,13.885-30.373,30.373v-4.339V238.644z" fill="#216ad9" data-original="#fdc794" class=""/>
<g xmlns="http://www.w3.org/2000/svg">
	<path style="" d="M225.698,458.197c-1.736,0-4.339-0.868-5.207-1.736c-6.942-6.075-13.017-13.017-18.224-19.959   c-1.736-1.736-2.603-3.471-4.339-5.207c-3.471-3.471-2.603-9.546,0.868-12.149c3.471-3.471,9.546-2.603,12.149,0.868   c1.736,1.736,3.471,4.339,4.339,6.075c5.207,6.075,9.546,12.149,15.62,17.356c3.471,3.471,4.339,8.678,0.868,12.149   C230.037,456.461,228.301,458.197,225.698,458.197" fill="#216ad9" data-original="#f9a671" class=""/>
	<path style="" d="M195.325,329.763c-3.471,0-6.075-1.736-7.81-4.339l-8.678-17.356   c-2.603-4.339-0.868-9.546,3.471-11.281c4.339-2.603,9.546-0.868,11.281,3.471l8.678,17.356c2.603,4.339,0.868,9.546-3.471,11.281   C198.796,329.763,197.061,329.763,195.325,329.763" fill="#216ad9" data-original="#f9a671" class=""/>
	<path style="" d="M247.393,321.085c-5.207,0-8.678-3.471-8.678-8.678V199.593c0-5.207,3.471-8.678,8.678-8.678   c5.207,0,8.678,3.471,8.678,8.678v112.814C256.071,317.614,252.6,321.085,247.393,321.085" fill="#216ad9" data-original="#f9a671" class=""/>
	<path style="" d="M308.139,312.407c-5.207,0-8.678-3.471-8.678-8.678v-69.424c0-5.207,3.471-8.678,8.678-8.678   s8.678,3.471,8.678,8.678v69.424C316.817,308.936,313.345,312.407,308.139,312.407" fill="#216ad9" data-original="#f9a671" class=""/>
	<path style="" d="M368.884,313.275c-5.207,0-8.678-3.471-8.678-8.678v-35.58c0-5.207,3.471-8.678,8.678-8.678   s8.678,3.471,8.678,8.678v35.58C377.562,309.803,374.091,313.275,368.884,313.275" fill="#216ad9" data-original="#f9a671" class=""/>
	<path style="" d="M377.562,468.61c-3.471,0-6.942-2.603-8.678-6.075c-0.868-4.339,1.736-9.546,6.075-10.414   c16.488-4.339,18.224-6.942,23.431-13.885c2.603-3.471,8.678-4.339,12.149-1.736c3.471,2.603,4.339,7.81,1.736,12.149   c-7.81,11.281-13.885,15.62-32.976,20.827C379.298,468.61,378.43,468.61,377.562,468.61" fill="#216ad9" data-original="#f9a671" class=""/>
</g>
<g xmlns="http://www.w3.org/2000/svg">
	<path style="" d="M221.359,43.39c-5.207,0-8.678-3.471-8.678-8.678V8.678c0-5.207,3.471-8.678,8.678-8.678   s8.678,3.471,8.678,8.678v26.034C230.037,39.919,226.566,43.39,221.359,43.39" fill="#216ad9" data-original="#71c386" class=""/>
	<path style="" d="M152.803,104.136h-26.034c-5.207,0-8.678-3.471-8.678-8.678c0-5.207,3.471-8.678,8.678-8.678h26.034   c5.207,0,8.678,3.471,8.678,8.678C161.481,100.664,157.142,104.136,152.803,104.136" fill="#216ad9" data-original="#71c386" class=""/>
	<path style="" d="M308.139,104.136h-26.034c-5.207,0-8.678-3.471-8.678-8.678c0-5.207,3.471-8.678,8.678-8.678h26.034   c5.207,0,8.678,3.471,8.678,8.678C316.817,100.664,312.478,104.136,308.139,104.136" fill="#216ad9" data-original="#71c386" class=""/>
	<path style="" d="M264.749,60.746c-2.603,0-4.339-0.868-6.075-2.603c-3.471-3.471-3.471-8.678,0-12.149l17.356-17.356   c3.471-3.471,8.678-3.471,12.149,0c3.471,3.471,3.471,8.678,0,12.149l-17.356,17.356C269.088,59.878,267.352,60.746,264.749,60.746   " fill="#216ad9" data-original="#71c386" class=""/>
	<path style="" d="M170.159,60.746c-2.603,0-4.339-0.868-6.075-2.603l-17.356-17.356   c-3.471-3.471-3.471-8.678,0-12.149s8.678-3.471,12.149,0l17.356,17.356c3.471,3.471,3.471,8.678,0,12.149   C174.498,59.878,171.895,60.746,170.159,60.746" fill="#216ad9" data-original="#71c386" class=""/>
</g>
<g xmlns="http://www.w3.org/2000/svg">
</g>
<g xmlns="http://www.w3.org/2000/svg">
</g>
<g xmlns="http://www.w3.org/2000/svg">
</g>
<g xmlns="http://www.w3.org/2000/svg">
</g>
<g xmlns="http://www.w3.org/2000/svg">
</g>
<g xmlns="http://www.w3.org/2000/svg">
</g>
<g xmlns="http://www.w3.org/2000/svg">
</g>
<g xmlns="http://www.w3.org/2000/svg">
</g>
<g xmlns="http://www.w3.org/2000/svg">
</g>
<g xmlns="http://www.w3.org/2000/svg">
</g>
<g xmlns="http://www.w3.org/2000/svg">
</g>
<g xmlns="http://www.w3.org/2000/svg">
</g>
<g xmlns="http://www.w3.org/2000/svg">
</g>
<g xmlns="http://www.w3.org/2000/svg">
</g>
<g xmlns="http://www.w3.org/2000/svg">
</g>
</g></svg>
