<?xml version="1.0" encoding="UTF-8"?>
<svg xmlns="http://www.w3.org/2000/svg" xmlns:xlink="http://www.w3.org/1999/xlink" width="591pt" height="500pt" viewBox="0 0 591 500" version="1.1">
<defs>
<filter id="alpha" filterUnits="objectBoundingBox" x="0%" y="0%" width="100%" height="100%">
  <feColorMatrix type="matrix" in="SourceGraphic" values="0 0 0 0 1 0 0 0 0 1 0 0 0 0 1 0 0 0 1 0"/>
</filter>
<mask id="mask0">
  <g filter="url(#alpha)">
<rect x="0" y="0" width="591" height="500" style="fill:rgb(0%,0%,0%);fill-opacity:0.2;stroke:none;"/>
  </g>
</mask>
<clipPath id="clip1">
  <rect x="0" y="0" width="591" height="500"/>
</clipPath>
<g id="surface5" clip-path="url(#clip1)">
<path style=" stroke:none;fill-rule:nonzero;fill:rgb(0%,0%,0%);fill-opacity:1;" d="M 467.816406 272.015625 L 172.230469 272.015625 C 165.464844 272.015625 159.980469 266.519531 159.980469 259.742188 L 159.980469 270.886719 C 159.980469 277.664062 165.464844 283.15625 172.230469 283.15625 L 467.816406 283.15625 C 474.582031 283.15625 480.070312 277.664062 480.070312 270.886719 L 480.070312 259.742188 C 480.070312 266.519531 474.582031 272.015625 467.816406 272.015625 Z M 467.816406 272.015625 "/>
</g>
</defs>
<g id="surface1">
<path style=" stroke:none;fill-rule:nonzero;fill:rgb(100%,100%,100%);fill-opacity:1;" d="M 453.832031 464.074219 L 186.21875 464.074219 C 182.761719 464.070312 179.964844 461.265625 179.960938 457.808594 L 179.960938 274.785156 C 179.964844 271.324219 182.761719 268.519531 186.21875 268.515625 L 453.832031 268.515625 C 457.285156 268.519531 460.085938 271.324219 460.089844 274.785156 L 460.089844 457.808594 C 460.085938 461.265625 457.285156 464.070312 453.832031 464.074219 Z M 453.832031 464.074219 "/>
<path style=" stroke:none;fill-rule:nonzero;fill:rgb(24.705882%,23.921569%,33.72549%);fill-opacity:1;" d="M 453.832031 464.074219 L 186.21875 464.074219 C 182.761719 464.070312 179.964844 461.265625 179.960938 457.808594 L 179.960938 274.785156 C 179.964844 271.324219 182.761719 268.519531 186.21875 268.515625 L 453.832031 268.515625 C 457.285156 268.519531 460.085938 271.324219 460.089844 274.785156 L 460.089844 457.808594 C 460.085938 461.265625 457.285156 464.070312 453.832031 464.074219 Z M 186.21875 269.910156 C 183.53125 269.914062 181.351562 272.09375 181.351562 274.785156 L 181.351562 457.808594 C 181.351562 460.5 183.53125 462.679688 186.21875 462.683594 L 453.832031 462.683594 C 456.519531 462.679688 458.695312 460.5 458.699219 457.808594 L 458.699219 274.785156 C 458.695312 272.09375 456.519531 269.914062 453.832031 269.910156 Z M 186.21875 269.910156 "/>
<path style=" stroke:none;fill-rule:nonzero;fill:rgb(90.196078%,90.196078%,90.196078%);fill-opacity:1;" d="M 351.003906 462.972656 L 289.046875 462.972656 L 289.046875 360.246094 C 289.050781 355.171875 293.15625 351.058594 298.222656 351.054688 L 341.828125 351.054688 C 346.890625 351.058594 350.996094 355.171875 351.003906 360.246094 Z M 351.003906 462.972656 "/>
<path style=" stroke:none;fill-rule:nonzero;fill:rgb(100%,100%,100%);fill-opacity:1;" d="M 439.234375 229.503906 L 403.855469 229.503906 L 403.855469 170.28125 C 403.859375 166.820312 406.65625 164.015625 410.113281 164.011719 L 432.976562 164.011719 C 436.433594 164.015625 439.230469 166.820312 439.234375 170.28125 Z M 439.234375 229.503906 "/>
<path style=" stroke:none;fill-rule:nonzero;fill:rgb(24.705882%,23.921569%,33.72549%);fill-opacity:1;" d="M 439.234375 229.503906 L 403.855469 229.503906 L 403.855469 170.28125 C 403.859375 166.820312 406.65625 164.015625 410.113281 164.011719 L 432.976562 164.011719 C 436.433594 164.015625 439.230469 166.820312 439.234375 170.28125 Z M 405.246094 228.109375 L 437.84375 228.109375 L 437.84375 170.28125 C 437.84375 167.589844 435.664062 165.410156 432.976562 165.40625 L 410.113281 165.40625 C 407.425781 165.410156 405.246094 167.589844 405.246094 170.28125 Z M 405.246094 228.109375 "/>
<path style=" stroke:none;fill-rule:nonzero;fill:rgb(94.901961%,94.901961%,94.901961%);fill-opacity:1;" d="M 307.882812 186.203125 C 307.882812 223.890625 277.378906 254.441406 239.75 254.441406 C 202.121094 254.441406 171.617188 223.890625 171.617188 186.203125 C 171.617188 148.515625 202.121094 117.964844 239.75 117.964844 C 277.378906 117.964844 307.882812 148.515625 307.882812 186.203125 Z M 307.882812 186.203125 "/>
<path style=" stroke:none;fill-rule:nonzero;fill:rgb(90.196078%,90.196078%,90.196078%);fill-opacity:1;" d="M 422.605469 153.632812 C 416.46875 153.4375 411.007812 147.832031 410.964844 141.683594 C 410.917969 135.535156 416.300781 129.851562 422.433594 129.570312 C 436.089844 128.945312 447.269531 114.269531 444.265625 100.914062 C 441.257812 87.558594 424.875 79.101562 412.269531 84.402344 C 402.601562 88.46875 392.832031 75.65625 395.285156 65.445312 C 397.734375 55.234375 407.007812 48.375 415.585938 42.335938 C 424.164062 36.300781 433.34375 29.210938 435.414062 18.914062 C 437.484375 8.617188 426.882812 -3.714844 417.542969 1.058594 "/>
<path style=" stroke:none;fill-rule:nonzero;fill:rgb(90.196078%,90.196078%,90.196078%);fill-opacity:1;" d="M 262.878906 380.894531 L 210.542969 380.894531 C 206.195312 380.890625 202.671875 377.363281 202.667969 373.007812 L 202.667969 329.796875 C 202.671875 325.441406 206.195312 321.914062 210.542969 321.910156 L 262.878906 321.910156 C 267.222656 321.914062 270.746094 325.441406 270.75 329.796875 L 270.75 373.007812 C 270.746094 377.363281 267.222656 380.890625 262.878906 380.894531 Z M 262.878906 380.894531 "/>
<path style=" stroke:none;fill-rule:nonzero;fill:rgb(90.196078%,90.196078%,90.196078%);fill-opacity:1;" d="M 430.714844 380.894531 L 378.382812 380.894531 C 374.035156 380.890625 370.511719 377.363281 370.507812 373.007812 L 370.507812 329.796875 C 370.511719 325.441406 374.035156 321.914062 378.382812 321.910156 L 430.714844 321.910156 C 435.0625 321.914062 438.585938 325.441406 438.589844 329.796875 L 438.589844 373.007812 C 438.585938 377.363281 435.0625 380.890625 430.714844 380.894531 Z M 430.714844 380.894531 "/>
<path style=" stroke:none;fill-rule:nonzero;fill:rgb(39.607843%,61.960784%,34.117647%);fill-opacity:1;" d="M 159.980469 272.28125 L 159.980469 244.121094 C 159.980469 239.71875 162.335938 235.652344 166.152344 233.46875 L 322.367188 144.042969 C 326.320312 141.78125 331.199219 141.898438 335.035156 144.351562 L 474.40625 233.382812 C 477.933594 235.636719 480.070312 239.539062 480.070312 243.730469 L 480.070312 272.28125 C 480.070312 279.058594 474.582031 284.550781 467.816406 284.550781 L 172.230469 284.550781 C 165.464844 284.550781 159.980469 279.058594 159.980469 272.28125 Z M 159.980469 272.28125 "/>
<use xlink:href="#surface5" mask="url(#mask0)"/>
<path style=" stroke:none;fill-rule:nonzero;fill:rgb(94.901961%,94.901961%,94.901961%);fill-opacity:1;" d="M 491.816406 368.378906 C 491.816406 346.78125 509.292969 295.539062 530.855469 295.539062 C 552.417969 295.539062 569.894531 346.78125 569.894531 368.378906 C 569.894531 389.972656 552.417969 407.476562 530.855469 407.476562 C 509.292969 407.476562 491.816406 389.972656 491.816406 368.378906 Z M 491.816406 368.378906 "/>
<path style=" stroke:none;fill-rule:nonzero;fill:rgb(24.705882%,23.921569%,33.72549%);fill-opacity:1;" d="M 530.855469 463.242188 C 530.472656 463.242188 530.160156 462.933594 530.160156 462.546875 L 530.160156 322.148438 C 530.160156 321.765625 530.472656 321.453125 530.855469 321.453125 C 531.238281 321.453125 531.550781 321.765625 531.550781 322.148438 L 531.550781 462.546875 C 531.550781 462.933594 531.238281 463.242188 530.855469 463.242188 Z M 530.855469 463.242188 "/>
<path style=" stroke:none;fill-rule:nonzero;fill:rgb(24.705882%,23.921569%,33.72549%);fill-opacity:1;" d="M 530.855469 384.410156 C 530.578125 384.410156 530.324219 384.246094 530.214844 383.988281 C 530.105469 383.730469 530.160156 383.433594 530.351562 383.234375 L 550.199219 362.375 C 550.460938 362.097656 550.902344 362.085938 551.179688 362.351562 C 551.457031 362.617188 551.46875 363.058594 551.203125 363.335938 L 531.359375 384.195312 C 531.226562 384.332031 531.046875 384.410156 530.855469 384.410156 Z M 530.855469 384.410156 "/>
<path style=" stroke:none;fill-rule:nonzero;fill:rgb(24.705882%,23.921569%,33.72549%);fill-opacity:1;" d="M 530.855469 349.246094 C 530.679688 349.246094 530.515625 349.179688 530.386719 349.0625 L 513.234375 333.359375 C 513.050781 333.191406 512.972656 332.9375 513.023438 332.691406 C 513.078125 332.449219 513.257812 332.253906 513.496094 332.179688 C 513.730469 332.101562 513.992188 332.160156 514.175781 332.328125 L 531.324219 348.035156 C 531.535156 348.226562 531.605469 348.53125 531.503906 348.800781 C 531.398438 349.066406 531.140625 349.246094 530.855469 349.246094 Z M 530.855469 349.246094 "/>
<path style=" stroke:none;fill-rule:nonzero;fill:rgb(39.607843%,61.960784%,34.117647%);fill-opacity:1;" d="M 15.316406 325.410156 C 15.316406 293.644531 41.027344 218.265625 72.742188 218.265625 C 104.460938 218.265625 130.171875 293.644531 130.171875 325.410156 C 130.171875 357.179688 104.460938 382.929688 72.742188 382.929688 C 41.027344 382.929688 15.316406 357.179688 15.316406 325.410156 Z M 15.316406 325.410156 "/>
<path style=" stroke:none;fill-rule:nonzero;fill:rgb(24.705882%,23.921569%,33.72549%);fill-opacity:1;" d="M 72.742188 464.636719 C 72.359375 464.636719 72.046875 464.324219 72.046875 463.941406 L 72.046875 257.410156 C 72.046875 257.023438 72.359375 256.714844 72.742188 256.714844 C 73.128906 256.714844 73.4375 257.023438 73.4375 257.410156 L 73.4375 463.941406 C 73.4375 464.324219 73.128906 464.636719 72.742188 464.636719 Z M 72.742188 464.636719 "/>
<path style=" stroke:none;fill-rule:nonzero;fill:rgb(24.705882%,23.921569%,33.72549%);fill-opacity:1;" d="M 72.742188 348.667969 C 72.464844 348.667969 72.214844 348.503906 72.105469 348.246094 C 71.996094 347.992188 72.046875 347.695312 72.242188 347.492188 L 101.433594 316.808594 C 101.699219 316.53125 102.140625 316.519531 102.417969 316.785156 C 102.695312 317.050781 102.707031 317.492188 102.441406 317.769531 L 73.246094 348.453125 C 73.117188 348.589844 72.933594 348.667969 72.742188 348.667969 Z M 72.742188 348.667969 "/>
<path style=" stroke:none;fill-rule:nonzero;fill:rgb(24.705882%,23.921569%,33.72549%);fill-opacity:1;" d="M 72.742188 296.9375 C 72.570312 296.9375 72.402344 296.875 72.273438 296.757812 L 47.046875 273.652344 C 46.761719 273.394531 46.742188 272.953125 47.003906 272.671875 C 47.261719 272.386719 47.699219 272.367188 47.984375 272.625 L 73.214844 295.730469 C 73.425781 295.921875 73.496094 296.226562 73.390625 296.496094 C 73.289062 296.761719 73.03125 296.9375 72.742188 296.9375 Z M 72.742188 296.9375 "/>
<path style=" stroke:none;fill-rule:nonzero;fill:rgb(90.196078%,90.196078%,90.196078%);fill-opacity:1;" d="M 503.585938 463.175781 C 503.648438 463.226562 503.71875 463.273438 503.785156 463.320312 L 560.320312 463.320312 C 561.429688 458.828125 561.820312 454.328125 560.164062 450.417969 C 557.808594 444.851562 550.828125 441.375 545.28125 443.765625 C 543.96875 444.347656 542.824219 445.253906 541.957031 446.402344 C 539.789062 442.515625 535.898438 439.585938 531.410156 439.589844 C 525.789062 439.59375 521.113281 444.199219 519.585938 449.519531 C 517.128906 445.363281 512.277344 442.460938 507.535156 443.710938 C 499.601562 445.800781 497.09375 458.152344 503.585938 463.175781 Z M 503.585938 463.175781 "/>
<path style=" stroke:none;fill-rule:nonzero;fill:rgb(90.196078%,90.196078%,90.196078%);fill-opacity:1;" d="M 17.898438 464.417969 C 18.03125 464.523438 18.171875 464.613281 18.304688 464.714844 L 132.433594 464.714844 C 134.667969 455.640625 135.457031 446.554688 132.117188 438.667969 C 127.359375 427.425781 113.273438 420.40625 102.074219 425.234375 C 99.421875 426.410156 97.109375 428.242188 95.359375 430.558594 C 90.984375 422.710938 83.132812 416.796875 74.074219 416.800781 C 62.71875 416.8125 53.28125 426.109375 50.203125 436.847656 C 45.242188 428.464844 35.445312 422.605469 25.871094 425.125 C 9.851562 429.339844 4.792969 454.277344 17.898438 464.417969 Z M 17.898438 464.417969 "/>
<path style=" stroke:none;fill-rule:nonzero;fill:rgb(24.705882%,23.921569%,33.72549%);fill-opacity:1;" d="M 0 463.804688 L 590.972656 462.6875 L 590.976562 464.078125 L 0.00390625 465.199219 Z M 0 463.804688 "/>
<path style=" stroke:none;fill-rule:nonzero;fill:rgb(100%,72.156863%,72.156863%);fill-opacity:1;" d="M 199.421875 434.34375 C 199.707031 433.230469 199.484375 432.046875 198.8125 431.109375 C 198.144531 430.175781 197.097656 429.585938 195.949219 429.5 L 173.871094 401.851562 L 168.40625 406.953125 L 191.730469 433.363281 C 191.714844 435.34375 193.179688 437.023438 195.140625 437.273438 C 197.101562 437.523438 198.941406 436.265625 199.421875 434.34375 Z M 199.421875 434.34375 "/>
<path style=" stroke:none;fill-rule:nonzero;fill:rgb(24.705882%,23.921569%,33.72549%);fill-opacity:1;" d="M 178.105469 406.242188 L 171.128906 411.597656 C 170.726562 411.90625 170.210938 412.023438 169.714844 411.917969 C 169.21875 411.816406 168.792969 411.5 168.546875 411.058594 L 164.296875 403.382812 C 162.691406 401.257812 163.105469 398.226562 165.222656 396.609375 C 167.34375 394.996094 170.367188 395.402344 171.988281 397.519531 L 178.257812 403.609375 C 178.621094 403.960938 178.816406 404.457031 178.785156 404.960938 C 178.753906 405.46875 178.507812 405.9375 178.105469 406.242188 Z M 178.105469 406.242188 "/>
<path style=" stroke:none;fill-rule:nonzero;fill:rgb(100%,72.156863%,72.156863%);fill-opacity:1;" d="M 175.261719 380.664062 C 175.261719 385.574219 171.289062 389.550781 166.386719 389.550781 C 161.484375 389.550781 157.511719 385.574219 157.511719 380.664062 C 157.511719 375.757812 161.484375 371.777344 166.386719 371.777344 C 171.289062 371.777344 175.261719 375.757812 175.261719 380.664062 Z M 175.261719 380.664062 "/>
<path style=" stroke:none;fill-rule:nonzero;fill:rgb(100%,72.156863%,72.156863%);fill-opacity:1;" d="M 185.328125 495.949219 L 189.757812 495.949219 L 189.335938 487.644531 L 182.800781 487.644531 Z M 185.328125 495.949219 "/>
<path style=" stroke:none;fill-rule:nonzero;fill:rgb(18.431373%,18.039216%,25.490196%);fill-opacity:1;" d="M 184.199219 494.5 L 192.921875 494.5 C 195.992188 494.5 198.480469 496.992188 198.480469 500.066406 L 198.480469 500.25 L 184.199219 500.25 Z M 184.199219 494.5 "/>
<path style=" stroke:none;fill-rule:nonzero;fill:rgb(100%,72.156863%,72.156863%);fill-opacity:1;" d="M 138.101562 489.667969 L 141.871094 492 L 145.871094 484.714844 L 141.308594 481.855469 Z M 138.101562 489.667969 "/>
<path style=" stroke:none;fill-rule:nonzero;fill:rgb(18.431373%,18.039216%,25.490196%);fill-opacity:1;" d="M 137.902344 487.839844 L 145.324219 492.433594 C 147.9375 494.046875 148.746094 497.480469 147.132812 500.09375 L 147.035156 500.25 L 134.886719 492.730469 Z M 137.902344 487.839844 "/>
<path style=" stroke:none;fill-rule:nonzero;fill:rgb(18.431373%,18.039216%,25.490196%);fill-opacity:1;" d="M 185.007812 493.515625 C 184.335938 493.515625 183.730469 493.097656 183.492188 492.464844 L 167.46875 454.097656 C 167.398438 453.90625 167.230469 453.773438 167.027344 453.746094 C 166.824219 453.722656 166.625 453.8125 166.511719 453.980469 L 144.5 488.710938 C 144.054688 489.378906 143.191406 489.621094 142.464844 489.277344 L 139.453125 487.871094 C 138.652344 487.492188 138.296875 486.539062 138.65625 485.726562 L 156.691406 445.46875 C 156.296875 444.507812 152.457031 434.65625 158.355469 429.789062 L 158.398438 429.765625 L 174.398438 422.617188 L 174.800781 434.910156 L 190.75 490.332031 C 190.871094 490.753906 190.820312 491.207031 190.601562 491.589844 C 190.386719 491.96875 190.027344 492.246094 189.601562 492.359375 L 185.425781 493.460938 C 185.289062 493.496094 185.148438 493.515625 185.007812 493.515625 Z M 185.007812 493.515625 "/>
<path style=" stroke:none;fill-rule:nonzero;fill:rgb(24.705882%,23.921569%,33.72549%);fill-opacity:1;" d="M 174.640625 404.632812 C 174.03125 402.183594 173.167969 399.714844 172.011719 398.574219 C 171.585938 398.160156 171.183594 397.71875 170.8125 397.253906 C 170.035156 396.273438 169.054688 395.46875 167.941406 394.898438 C 168.347656 394.667969 168.585938 394.398438 168.585938 394.105469 C 168.585938 393.308594 166.808594 392.660156 164.613281 392.660156 C 162.417969 392.660156 160.640625 393.308594 160.640625 394.105469 C 160.648438 394.292969 160.734375 394.46875 160.875 394.59375 C 157.953125 395.785156 155.9375 398.507812 155.648438 401.65625 C 155.132812 407.160156 154.984375 414.199219 156.78125 418.652344 C 158.292969 422.332031 158.410156 426.4375 157.121094 430.199219 C 156.941406 430.734375 157.089844 431.328125 157.5 431.714844 C 157.910156 432.097656 158.507812 432.210938 159.03125 432 L 174.90625 425.589844 C 175.453125 425.371094 175.8125 424.839844 175.8125 424.25 L 175.8125 414.515625 C 175.824219 411.1875 175.433594 407.867188 174.640625 404.632812 Z M 174.640625 404.632812 "/>
<path style=" stroke:none;fill-rule:nonzero;fill:rgb(100%,72.156863%,72.156863%);fill-opacity:1;" d="M 144.261719 444.71875 C 145.378906 444.457031 146.328125 443.714844 146.847656 442.6875 C 147.367188 441.664062 147.402344 440.460938 146.953125 439.402344 L 159.375 406.589844 L 153.074219 404.960938 L 141.585938 437.433594 C 139.820312 438.332031 139.007812 440.410156 139.691406 442.269531 C 140.375 444.125 142.339844 445.179688 144.261719 444.71875 Z M 144.261719 444.71875 "/>
<path style=" stroke:none;fill-rule:nonzero;fill:rgb(24.705882%,23.921569%,33.72549%);fill-opacity:1;" d="M 159.324219 412.816406 L 151.363281 409.085938 C 150.902344 408.871094 150.5625 408.464844 150.425781 407.976562 C 150.289062 407.488281 150.371094 406.964844 150.648438 406.542969 L 155.488281 399.226562 C 156.632812 396.820312 159.503906 395.792969 161.910156 396.929688 C 164.320312 398.066406 165.355469 400.941406 164.230469 403.355469 L 161.726562 411.738281 C 161.582031 412.222656 161.234375 412.621094 160.773438 412.828125 C 160.308594 413.035156 159.78125 413.03125 159.324219 412.816406 Z M 159.324219 412.816406 "/>
<path style=" stroke:none;fill-rule:nonzero;fill:rgb(18.431373%,18.039216%,25.490196%);fill-opacity:1;" d="M 174.539062 378.476562 C 174.9375 378.523438 175.34375 378.453125 175.703125 378.265625 C 176.355469 377.835938 176.292969 376.863281 176.070312 376.109375 C 174.949219 372.449219 172.039062 369.617188 168.355469 368.59375 C 167.09375 368.257812 165.496094 368.269531 164.769531 369.359375 C 161.019531 366.855469 156.003906 367.472656 152.964844 370.8125 C 151.53125 372.5 150.574219 374.542969 150.195312 376.726562 C 149.4375 380.449219 146.1875 388.121094 147.988281 391.464844 C 149.183594 393.691406 154.691406 391.957031 157.023438 392.925781 C 159.378906 393.953125 162.09375 393.734375 164.253906 392.339844 C 166.394531 390.863281 167.316406 388.15625 166.523438 385.675781 C 166.117188 384.789062 165.648438 383.933594 165.117188 383.109375 C 164.585938 382.28125 164.371094 381.285156 164.507812 380.308594 C 164.832031 378.824219 171.835938 378.421875 174.539062 378.476562 Z M 174.539062 378.476562 "/>
</g>
</svg>
