<?xml version="1.0"?>
<svg xmlns="http://www.w3.org/2000/svg" xmlns:xlink="http://www.w3.org/1999/xlink" xmlns:svgjs="http://svgjs.com/svgjs" version="1.1" width="512" height="512" x="0" y="0" viewBox="0 0 512 512" style="enable-background:new 0 0 512 512" xml:space="preserve" class=""><circle r="256" cx="256" cy="256" fill="#cee8dd" shape="circle"/><g transform="matrix(0.7,0,0,0.7,76.80000228881838,76.80000457763674)"><g xmlns="http://www.w3.org/2000/svg" id="Flat"><path d="m488 104a80 80 0 0 0 -160 0c0 44.18278 80 136 80 136s80-91.81722 80-136z" fill="#38b47e" data-original="#e44042" style="" class=""/><path d="m408 80h48v48h-48z" fill="#38b47e" data-original="#379ec3" style="" class=""/><path d="m384 56h48v48h-48z" fill="#38b47e" data-original="#8acce7" style="" class=""/><path d="m184 184h-32a112 112 0 0 0 -112 112v128h96v-192h48z" fill="#38b47e" data-original="#379ec3" style="" class=""/><path d="m24 456h240a0 0 0 0 1 0 0v8a24 24 0 0 1 -24 24h-192a24 24 0 0 1 -24-24v-8a0 0 0 0 1 0 0z" fill="#38b47e" transform="matrix(-1 0 0 -1 288 944)" data-original="#396795" style="" class=""/><path d="m48 424h192a0 0 0 0 1 0 0v8a24 24 0 0 1 -24 24h-144a24 24 0 0 1 -24-24v-8a0 0 0 0 1 0 0z" fill="#38b47e" transform="matrix(-1 0 0 -1 288 880)" data-original="#2d80b3" style="" class=""/><path d="m200 424a56.56848 56.56848 0 0 0 0-80l-44-44a16.97055 16.97055 0 0 1 0-24 16.97055 16.97055 0 0 1 24 0l20 20 32-32-48-48v-32l-32 32h-.00008a79.99991 79.99991 0 0 0 -79.99992 79.99992v96.00008a32 32 0 0 0 32 32z" fill="#38b47e" data-original="#8acce7" style="" class=""/><g fill="#eebe33"><path d="m336 200h16v16h-16z" fill="#38b47e" data-original="#eebe33" style="" class=""/><path d="m384 456h-40v-16h40a56 56 0 0 0 0-112h-48a64.00876 64.00876 0 0 1 -18.28174-125.34863l4.56348 15.33593a48.00846 48.00846 0 0 0 13.71826 94.0127h48a72 72 0 0 1 0 144z" fill="#38b47e" data-original="#eebe33" style="" class=""/><path d="m312 440h16v16h-16z" fill="#38b47e" data-original="#eebe33" style="" class=""/><path d="m280 440h16v16h-16z" fill="#38b47e" data-original="#eebe33" style="" class=""/></g><path d="m360 232h96v16h-96z" fill="#2f4054" data-original="#2f4054" style="" class=""/><path d="m376 56h16v104h-16z" fill="#38b47e" data-original="#ad7d4d" style="" class=""/></g></g></svg>
